<svg width="36" height="36" viewBox="0 0 36 36" fill="none" xmlns="http://www.w3.org/2000/svg">
<path d="M22.2854 25.6226C25.1272 25.2855 27.8676 24.6173 30.4668 23.6578C28.3116 21.2655 26.9998 18.0985 26.9998 14.625V13.5738C27 13.5492 27.0001 13.5246 27.0001 13.5C27.0001 8.52944 22.9707 4.5 18.0001 4.5C13.0295 4.5 9.00011 8.52944 9.00011 13.5L8.99981 14.625C8.99981 18.0985 7.68802 21.2655 5.53283 23.6578C8.13222 24.6174 10.8728 25.2856 13.7148 25.6226M22.2854 25.6226C20.8801 25.7893 19.45 25.875 17.9998 25.875C16.5499 25.875 15.1199 25.7893 13.7148 25.6226M22.2854 25.6226C22.4248 26.0567 22.5001 26.5196 22.5001 27C22.5001 29.4853 20.4854 31.5 18.0001 31.5C15.5148 31.5 13.5001 29.4853 13.5001 27C13.5001 26.5196 13.5754 26.0567 13.7148 25.6226M4.68677 11.25C5.11769 8.68146 6.27391 6.35886 7.93763 4.5M28.0626 4.5C29.7263 6.35886 30.8825 8.68146 31.3135 11.25" stroke="#0F6987" stroke-width="1.5" stroke-linecap="round" stroke-linejoin="round"/>
</svg>
