<svg width="36" height="36" viewBox="0 0 36 36" fill="none" xmlns="http://www.w3.org/2000/svg">
<path fill-rule="evenodd" clip-rule="evenodd" d="M4.5 7.3125C4.5 5.7592 5.7592 4.5 7.3125 4.5H14.0625C15.6158 4.5 16.875 5.7592 16.875 7.3125V14.0625C16.875 15.6158 15.6158 16.875 14.0625 16.875H7.3125C5.7592 16.875 4.5 15.6158 4.5 14.0625V7.3125ZM7.3125 6.75C7.00184 6.75 6.75 7.00184 6.75 7.3125V14.0625C6.75 14.3732 7.00184 14.625 7.3125 14.625H14.0625C14.3732 14.625 14.625 14.3732 14.625 14.0625V7.3125C14.625 7.00184 14.3732 6.75 14.0625 6.75H7.3125ZM19.125 7.3125C19.125 5.7592 20.3842 4.5 21.9375 4.5H28.6875C30.2408 4.5 31.5 5.7592 31.5 7.3125V14.0625C31.5 15.6158 30.2408 16.875 28.6875 16.875H21.9375C20.3842 16.875 19.125 15.6158 19.125 14.0625V7.3125ZM21.9375 6.75C21.6268 6.75 21.375 7.00184 21.375 7.3125V14.0625C21.375 14.3732 21.6268 14.625 21.9375 14.625H28.6875C28.9982 14.625 29.25 14.3732 29.25 14.0625V7.3125C29.25 7.00184 28.9982 6.75 28.6875 6.75H21.9375ZM9 10.125C9 9.50368 9.50368 9 10.125 9H11.25C11.8713 9 12.375 9.50368 12.375 10.125V11.25C12.375 11.8713 11.8713 12.375 11.25 12.375H10.125C9.50368 12.375 9 11.8713 9 11.25V10.125ZM23.625 10.125C23.625 9.50368 24.1287 9 24.75 9H25.875C26.4963 9 27 9.50368 27 10.125V11.25C27 11.8713 26.4963 12.375 25.875 12.375H24.75C24.1287 12.375 23.625 11.8713 23.625 11.25V10.125ZM4.5 21.9375C4.5 20.3842 5.7592 19.125 7.3125 19.125H14.0625C15.6158 19.125 16.875 20.3842 16.875 21.9375V28.6875C16.875 30.2408 15.6158 31.5 14.0625 31.5H7.3125C5.7592 31.5 4.5 30.2408 4.5 28.6875V21.9375ZM7.3125 21.375C7.00184 21.375 6.75 21.6268 6.75 21.9375V28.6875C6.75 28.9982 7.00184 29.25 7.3125 29.25H14.0625C14.3732 29.25 14.625 28.9982 14.625 28.6875V21.9375C14.625 21.6268 14.3732 21.375 14.0625 21.375H7.3125ZM19.125 20.25C19.125 19.6287 19.6287 19.125 20.25 19.125H21.375C21.9963 19.125 22.5 19.6287 22.5 20.25V21.375C22.5 21.9963 21.9963 22.5 21.375 22.5H20.25C19.6287 22.5 19.125 21.9963 19.125 21.375V20.25ZM28.125 20.25C28.125 19.6287 28.6287 19.125 29.25 19.125H30.375C30.9963 19.125 31.5 19.6287 31.5 20.25V21.375C31.5 21.9963 30.9963 22.5 30.375 22.5H29.25C28.6287 22.5 28.125 21.9963 28.125 21.375V20.25ZM9 24.75C9 24.1287 9.50368 23.625 10.125 23.625H11.25C11.8713 23.625 12.375 24.1287 12.375 24.75V25.875C12.375 26.4963 11.8713 27 11.25 27H10.125C9.50368 27 9 26.4963 9 25.875V24.75ZM23.625 24.75C23.625 24.1287 24.1287 23.625 24.75 23.625H25.875C26.4963 23.625 27 24.1287 27 24.75V25.875C27 26.4963 26.4963 27 25.875 27H24.75C24.1287 27 23.625 26.4963 23.625 25.875V24.75ZM19.125 29.25C19.125 28.6287 19.6287 28.125 20.25 28.125H21.375C21.9963 28.125 22.5 28.6287 22.5 29.25V30.375C22.5 30.9963 21.9963 31.5 21.375 31.5H20.25C19.6287 31.5 19.125 30.9963 19.125 30.375V29.25ZM28.125 29.25C28.125 28.6287 28.6287 28.125 29.25 28.125H30.375C30.9963 28.125 31.5 28.6287 31.5 29.25V30.375C31.5 30.9963 30.9963 31.5 30.375 31.5H29.25C28.6287 31.5 28.125 30.9963 28.125 30.375V29.25Z" fill="#0F6987"/>
</svg>
